<mxfile host="app.diagrams.net" agent="Mozilla/5.0 (Windows NT 10.0; Win64; x64) AppleWebKit/537.36 (KHTML, like Gecko) Chrome/132.0.0.0 Safari/537.36 Edg/132.0.0.0" version="26.0.10">
  <diagram name="第 1 页" id="qtcAwMIbISXWxPpKAaWr">
    <mxGraphModel dx="1349" dy="796" grid="1" gridSize="10" guides="1" tooltips="1" connect="1" arrows="1" fold="1" page="1" pageScale="1" pageWidth="827" pageHeight="1169" background="#ffffff" math="0" shadow="0">
      <root>
        <mxCell id="0" />
        <mxCell id="1" parent="0" />
        <mxCell id="nzdjFk9B4ukdJoqEqeBN-12" style="edgeStyle=orthogonalEdgeStyle;rounded=0;orthogonalLoop=1;jettySize=auto;html=1;exitX=1;exitY=0.5;exitDx=0;exitDy=0;entryX=0;entryY=0.5;entryDx=0;entryDy=0;" edge="1" parent="1" source="nzdjFk9B4ukdJoqEqeBN-1" target="nzdjFk9B4ukdJoqEqeBN-6">
          <mxGeometry relative="1" as="geometry" />
        </mxCell>
        <mxCell id="nzdjFk9B4ukdJoqEqeBN-1" value="&lt;h1&gt;&lt;font style=&quot;font-size: 26px;&quot;&gt;MILP&lt;/font&gt;&lt;/h1&gt;&lt;div style=&quot;text-align: left;&quot;&gt;&lt;font style=&quot;font-size: 17px;&quot; face=&quot;Helvetica&quot;&gt;minimize&lt;span style=&quot;white-space: pre;&quot;&gt;&#x9;&lt;/span&gt;&lt;span style=&quot;white-space: pre;&quot;&gt;&#x9;&lt;/span&gt;&lt;b style=&quot;&quot;&gt;c&lt;/b&gt;&lt;sup style=&quot;&quot;&gt;T&lt;/sup&gt;&lt;b style=&quot;&quot;&gt;x&lt;/b&gt;&lt;/font&gt;&lt;/div&gt;&lt;div style=&quot;text-align: left;&quot;&gt;&lt;font style=&quot;font-size: 17px;&quot; face=&quot;Helvetica&quot;&gt;&lt;b style=&quot;&quot;&gt;&lt;br&gt;&lt;/b&gt;&lt;/font&gt;&lt;/div&gt;&lt;div style=&quot;text-align: left;&quot;&gt;&lt;font style=&quot;font-size: 17px;&quot; face=&quot;Helvetica&quot;&gt;&lt;span style=&quot;color: rgb(6, 6, 7); letter-spacing: 0.5px; text-wrap-mode: nowrap;&quot;&gt;subject&amp;nbsp;to&lt;/span&gt;&lt;/font&gt;&lt;span style=&quot;color: light-dark(rgb(6, 6, 7), rgb(232, 232, 233)); letter-spacing: 0.5px; white-space: pre; font-size: 17px; background-color: transparent;&quot;&gt;&#x9;&lt;/span&gt;&lt;span style=&quot;font-size: 17px; background-color: transparent; text-wrap-mode: nowrap; color: rgb(6, 6, 7); letter-spacing: 0.5px;&quot;&gt;A&lt;b&gt;x&lt;/b&gt;&lt;/span&gt;&lt;span style=&quot;font-size: 17px; background-color: transparent; text-wrap-mode: nowrap; color: rgb(6, 6, 7); letter-spacing: 0.5px;&quot;&gt;≤&lt;b&gt;b&lt;/b&gt;&lt;/span&gt;&lt;/div&gt;&lt;div style=&quot;text-align: left;&quot;&gt;&lt;span style=&quot;color: rgb(6, 6, 7); letter-spacing: 0.5px; text-wrap-mode: nowrap;&quot;&gt;&lt;font style=&quot;font-size: 17px;&quot; face=&quot;Helvetica&quot;&gt;&lt;span style=&quot;white-space: pre;&quot;&gt;&#x9;&lt;/span&gt;&lt;span style=&quot;white-space: pre;&quot;&gt;&#x9;&lt;/span&gt;&lt;span style=&quot;white-space: pre;&quot;&gt;&#x9;&lt;/span&gt;D&lt;b&gt;x&lt;/b&gt;=&lt;b&gt;e&lt;/b&gt;&lt;/font&gt;&lt;/span&gt;&lt;/div&gt;&lt;div style=&quot;text-align: left;&quot;&gt;&lt;span style=&quot;color: rgb(6, 6, 7); letter-spacing: 0.5px; text-wrap-mode: nowrap;&quot;&gt;&lt;font style=&quot;font-size: 17px;&quot; face=&quot;Helvetica&quot;&gt;&lt;b&gt;&lt;span style=&quot;white-space: pre;&quot;&gt;&#x9;&lt;/span&gt;&lt;span style=&quot;white-space: pre;&quot;&gt;&#x9;&lt;/span&gt;&lt;span style=&quot;white-space: pre;&quot;&gt;&#x9;&lt;/span&gt;&lt;/b&gt;&lt;/font&gt;&lt;/span&gt;&lt;span style=&quot;background-color: transparent; text-wrap-mode: nowrap; font-size: 17px; color: rgb(6, 6, 7); letter-spacing: 0.5px;&quot;&gt;&lt;b&gt;x∈&lt;/b&gt;&lt;/span&gt;&lt;span style=&quot;background-color: transparent; color: light-dark(rgb(0, 0, 0), rgb(255, 255, 255)); font-size: 17px;&quot;&gt;Z&lt;sup&gt;p&lt;/sup&gt;&lt;/span&gt;&lt;span style=&quot;background-color: transparent; color: light-dark(rgb(0, 0, 0), rgb(255, 255, 255)); font-size: 17px; font-style: italic;&quot;&gt;×&lt;/span&gt;&lt;span style=&quot;background-color: transparent; color: light-dark(rgb(0, 0, 0), rgb(255, 255, 255)); font-size: 17px; font-style: italic;&quot;&gt;&amp;nbsp;&lt;/span&gt;&lt;span style=&quot;background-color: transparent; color: light-dark(rgb(0, 0, 0), rgb(255, 255, 255)); font-size: 17px;&quot;&gt;R&lt;sup&gt;n-p&lt;/sup&gt;&lt;/span&gt;&lt;/div&gt;&lt;div style=&quot;text-align: left;&quot;&gt;&lt;span style=&quot;background-color: transparent; color: light-dark(rgb(0, 0, 0), rgb(255, 255, 255)); font-size: 17px;&quot;&gt;&lt;sup&gt;&lt;br&gt;&lt;/sup&gt;&lt;/span&gt;&lt;/div&gt;&lt;div style=&quot;text-align: left;&quot;&gt;&lt;span style=&quot;background-color: transparent; color: light-dark(rgb(0, 0, 0), rgb(255, 255, 255)); font-size: 17px;&quot;&gt;&lt;sup&gt;&lt;br&gt;&lt;/sup&gt;&lt;/span&gt;&lt;/div&gt;" style="rounded=1;whiteSpace=wrap;html=1;fillColor=#dae8fc;strokeColor=#6c8ebf;labelBackgroundColor=none;" vertex="1" parent="1">
          <mxGeometry x="100" y="585" width="260" height="190" as="geometry" />
        </mxCell>
        <mxCell id="nzdjFk9B4ukdJoqEqeBN-4" value="&lt;pre style=&quot;margin: 2px 0px 0px; padding: 0px; border: 0px; font-variant-numeric: inherit; font-variant-east-asian: inherit; font-variant-alternates: inherit; font-variant-position: inherit; font-variant-emoji: inherit; font-stretch: inherit; font-size: 14px; line-height: 24px; font-family: -apple-system, BlinkMacSystemFont, &amp;quot;Helvetica Neue&amp;quot;, Helvetica, &amp;quot;Segoe UI&amp;quot;, Arial, Roboto, &amp;quot;PingFang SC&amp;quot;, MIUI, &amp;quot;Hiragino Sans GB&amp;quot;, &amp;quot;Microsoft YaHei&amp;quot;, sans-serif; font-optical-sizing: inherit; font-size-adjust: inherit; font-kerning: inherit; font-feature-settings: inherit; font-variation-settings: inherit; vertical-align: baseline; color: rgb(6, 6, 7); letter-spacing: 0.5px; text-align: start; background-color: rgb(255, 255, 255);&quot;&gt;preprocessing&lt;/pre&gt;&lt;pre style=&quot;margin: 2px 0px 0px; padding: 0px; border: 0px; font-variant-numeric: inherit; font-variant-east-asian: inherit; font-variant-alternates: inherit; font-variant-position: inherit; font-variant-emoji: inherit; font-stretch: inherit; font-size: 14px; line-height: 24px; font-family: -apple-system, BlinkMacSystemFont, &amp;quot;Helvetica Neue&amp;quot;, Helvetica, &amp;quot;Segoe UI&amp;quot;, Arial, Roboto, &amp;quot;PingFang SC&amp;quot;, MIUI, &amp;quot;Hiragino Sans GB&amp;quot;, &amp;quot;Microsoft YaHei&amp;quot;, sans-serif; font-optical-sizing: inherit; font-size-adjust: inherit; font-kerning: inherit; font-feature-settings: inherit; font-variation-settings: inherit; vertical-align: baseline; color: rgb(6, 6, 7); letter-spacing: 0.5px; text-align: start; background-color: rgb(255, 255, 255);&quot;&gt;Linear Relaxation&lt;/pre&gt;" style="text;html=1;align=center;verticalAlign=middle;whiteSpace=wrap;rounded=0;" vertex="1" parent="1">
          <mxGeometry x="355" y="630" width="140" height="40" as="geometry" />
        </mxCell>
        <mxCell id="nzdjFk9B4ukdJoqEqeBN-6" value="&lt;h1&gt;&lt;span style=&quot;text-align: left; background-color: transparent; color: light-dark(rgb(0, 0, 0), rgb(255, 255, 255)); font-size: 26px;&quot;&gt;LP solution&lt;/span&gt;&lt;/h1&gt;&lt;div&gt;&lt;span style=&quot;text-align: left; background-color: transparent; color: light-dark(rgb(0, 0, 0), rgb(255, 255, 255)); font-size: 26px;&quot;&gt;&lt;br&gt;&lt;/span&gt;&lt;/div&gt;&lt;div&gt;&lt;span style=&quot;text-align: left; background-color: transparent; color: light-dark(rgb(0, 0, 0), rgb(255, 255, 255)); font-size: 26px;&quot;&gt;&lt;br&gt;&lt;/span&gt;&lt;/div&gt;&lt;div&gt;&lt;span style=&quot;text-align: left; background-color: transparent; color: light-dark(rgb(0, 0, 0), rgb(255, 255, 255)); font-size: 26px;&quot;&gt;&lt;br&gt;&lt;/span&gt;&lt;/div&gt;&lt;div&gt;&lt;span style=&quot;text-align: left; background-color: transparent; color: light-dark(rgb(0, 0, 0), rgb(255, 255, 255)); font-size: 26px;&quot;&gt;&lt;br&gt;&lt;/span&gt;&lt;/div&gt;&lt;div&gt;&lt;span style=&quot;text-align: left; background-color: transparent; color: light-dark(rgb(0, 0, 0), rgb(255, 255, 255)); font-size: 26px;&quot;&gt;&lt;br&gt;&lt;/span&gt;&lt;/div&gt;" style="rounded=1;whiteSpace=wrap;html=1;fillColor=#d5e8d4;strokeColor=#82b366;labelBackgroundColor=none;" vertex="1" parent="1">
          <mxGeometry x="490" y="585" width="290" height="190" as="geometry" />
        </mxCell>
        <mxCell id="nzdjFk9B4ukdJoqEqeBN-24" value="&lt;div style=&quot;text-align: left;&quot;&gt;&lt;span style=&quot;background-color: transparent; font-size: 17px; letter-spacing: 0.5px; text-wrap-mode: nowrap;&quot;&gt;&lt;font color=&quot;#060607&quot;&gt;&lt;b&gt;variable features&lt;/b&gt;&lt;/font&gt;&lt;/span&gt;&lt;/div&gt;" style="rounded=0;whiteSpace=wrap;html=1;fillColor=#e1d5e7;movable=1;resizable=1;rotatable=1;deletable=1;editable=1;locked=0;connectable=1;strokeColor=#9673a6;imageHeight=24;" vertex="1" parent="1">
          <mxGeometry x="545" y="635" width="180" height="35" as="geometry" />
        </mxCell>
        <mxCell id="nzdjFk9B4ukdJoqEqeBN-25" value="&lt;div style=&quot;text-align: left;&quot;&gt;&lt;font color=&quot;#060607&quot;&gt;&lt;span style=&quot;font-size: 17px; letter-spacing: 0.5px; text-wrap-mode: nowrap;&quot;&gt;&lt;b&gt;constraint features&lt;/b&gt;&lt;/span&gt;&lt;/font&gt;&lt;/div&gt;" style="rounded=0;whiteSpace=wrap;html=1;fillColor=#ffe6cc;movable=1;resizable=1;rotatable=1;deletable=1;editable=1;locked=0;connectable=1;strokeColor=#d79b00;imageHeight=24;" vertex="1" parent="1">
          <mxGeometry x="545" y="680" width="180" height="35" as="geometry" />
        </mxCell>
        <mxCell id="nzdjFk9B4ukdJoqEqeBN-26" value="&lt;div style=&quot;text-align: left;&quot;&gt;&lt;font color=&quot;#060607&quot;&gt;&lt;span style=&quot;font-size: 17px; letter-spacing: 0.5px; text-wrap-mode: nowrap;&quot;&gt;&lt;b&gt;variable coefficients&lt;/b&gt;&lt;/span&gt;&lt;/font&gt;&lt;/div&gt;" style="rounded=0;whiteSpace=wrap;html=1;fillColor=#bac8d3;movable=1;resizable=1;rotatable=1;deletable=1;editable=1;locked=0;connectable=1;strokeColor=#23445d;imageHeight=24;" vertex="1" parent="1">
          <mxGeometry x="545" y="727.5" width="180" height="35" as="geometry" />
        </mxCell>
        <mxCell id="nzdjFk9B4ukdJoqEqeBN-27" value="&lt;h1 style=&quot;text-align: left;&quot;&gt;&lt;span style=&quot;font-size: 26px;&quot;&gt;MODEL&lt;/span&gt;&lt;/h1&gt;&lt;div&gt;&lt;span style=&quot;text-align: left; background-color: transparent; color: light-dark(rgb(0, 0, 0), rgb(255, 255, 255)); font-size: 26px;&quot;&gt;&lt;br&gt;&lt;/span&gt;&lt;/div&gt;&lt;div&gt;&lt;span style=&quot;text-align: left; background-color: transparent; color: light-dark(rgb(0, 0, 0), rgb(255, 255, 255)); font-size: 26px;&quot;&gt;&lt;br&gt;&lt;/span&gt;&lt;/div&gt;&lt;div&gt;&lt;span style=&quot;text-align: left; background-color: transparent; color: light-dark(rgb(0, 0, 0), rgb(255, 255, 255)); font-size: 26px;&quot;&gt;&lt;br&gt;&lt;/span&gt;&lt;/div&gt;&lt;div&gt;&lt;span style=&quot;text-align: left; background-color: transparent; color: light-dark(rgb(0, 0, 0), rgb(255, 255, 255)); font-size: 26px;&quot;&gt;&lt;br&gt;&lt;/span&gt;&lt;/div&gt;&lt;div&gt;&lt;span style=&quot;text-align: left; background-color: transparent; color: light-dark(rgb(0, 0, 0), rgb(255, 255, 255)); font-size: 26px;&quot;&gt;&lt;br&gt;&lt;/span&gt;&lt;/div&gt;" style="rounded=1;whiteSpace=wrap;html=1;fillColor=#f8cecc;strokeColor=#b85450;labelBackgroundColor=none;" vertex="1" parent="1">
          <mxGeometry x="790" y="584" width="720" height="190" as="geometry" />
        </mxCell>
        <mxCell id="nzdjFk9B4ukdJoqEqeBN-46" style="edgeStyle=orthogonalEdgeStyle;rounded=0;orthogonalLoop=1;jettySize=auto;html=1;exitX=1;exitY=0.5;exitDx=0;exitDy=0;strokeColor=light-dark(#9673a6, #ededed);" edge="1" parent="1" source="nzdjFk9B4ukdJoqEqeBN-28" target="nzdjFk9B4ukdJoqEqeBN-39">
          <mxGeometry relative="1" as="geometry" />
        </mxCell>
        <mxCell id="nzdjFk9B4ukdJoqEqeBN-28" value="&lt;div style=&quot;text-align: left;&quot;&gt;&lt;span style=&quot;background-color: transparent; font-size: 17px; letter-spacing: 0.5px; text-wrap-mode: nowrap;&quot;&gt;&lt;font color=&quot;#060607&quot;&gt;&lt;b&gt;embedding&lt;/b&gt;&lt;/font&gt;&lt;/span&gt;&lt;/div&gt;" style="rounded=0;whiteSpace=wrap;html=1;fillColor=#e1d5e7;movable=1;resizable=1;rotatable=1;deletable=1;editable=1;locked=0;connectable=1;strokeColor=#9673a6;imageHeight=24;" vertex="1" parent="1">
          <mxGeometry x="850" y="635" width="130" height="35" as="geometry" />
        </mxCell>
        <mxCell id="nzdjFk9B4ukdJoqEqeBN-47" style="edgeStyle=orthogonalEdgeStyle;rounded=0;orthogonalLoop=1;jettySize=auto;html=1;exitX=1;exitY=0.5;exitDx=0;exitDy=0;entryX=0;entryY=0.5;entryDx=0;entryDy=0;strokeColor=light-dark(#d79b00, #ededed);" edge="1" parent="1" source="nzdjFk9B4ukdJoqEqeBN-29" target="nzdjFk9B4ukdJoqEqeBN-40">
          <mxGeometry relative="1" as="geometry" />
        </mxCell>
        <mxCell id="nzdjFk9B4ukdJoqEqeBN-48" value="&lt;span style=&quot;font-family: -apple-system, BlinkMacSystemFont, &amp;quot;Helvetica Neue&amp;quot;, Helvetica, &amp;quot;Segoe UI&amp;quot;, Arial, Roboto, &amp;quot;PingFang SC&amp;quot;, MIUI, &amp;quot;Hiragino Sans GB&amp;quot;, &amp;quot;Microsoft YaHei&amp;quot;, sans-serif; font-size: 14px; letter-spacing: 0.25px; text-align: left; white-space: pre-wrap;&quot;&gt;Softplus&lt;/span&gt;" style="edgeLabel;html=1;align=center;verticalAlign=middle;resizable=0;points=[];labelBackgroundColor=none;fontColor=light-dark(#d79b00, #ededed);" vertex="1" connectable="0" parent="nzdjFk9B4ukdJoqEqeBN-47">
          <mxGeometry x="-0.1484" relative="1" as="geometry">
            <mxPoint y="-8" as="offset" />
          </mxGeometry>
        </mxCell>
        <mxCell id="nzdjFk9B4ukdJoqEqeBN-29" value="&lt;div style=&quot;text-align: left;&quot;&gt;&lt;b style=&quot;color: rgb(6, 6, 7); font-size: 17px; letter-spacing: 0.5px; text-wrap-mode: nowrap;&quot;&gt;embedding&lt;/b&gt;&lt;/div&gt;" style="rounded=0;whiteSpace=wrap;html=1;fillColor=#ffe6cc;movable=1;resizable=1;rotatable=1;deletable=1;editable=1;locked=0;connectable=1;strokeColor=#d79b00;imageHeight=24;" vertex="1" parent="1">
          <mxGeometry x="850" y="680" width="130" height="35" as="geometry" />
        </mxCell>
        <mxCell id="nzdjFk9B4ukdJoqEqeBN-31" style="edgeStyle=orthogonalEdgeStyle;rounded=0;orthogonalLoop=1;jettySize=auto;html=1;exitX=1;exitY=0.5;exitDx=0;exitDy=0;fillColor=#e1d5e7;strokeColor=#9673a6;" edge="1" parent="1" source="nzdjFk9B4ukdJoqEqeBN-24" target="nzdjFk9B4ukdJoqEqeBN-28">
          <mxGeometry relative="1" as="geometry" />
        </mxCell>
        <mxCell id="nzdjFk9B4ukdJoqEqeBN-33" value="ColumnNonzeroNorm" style="edgeLabel;html=1;align=center;verticalAlign=middle;resizable=0;points=[];labelBackgroundColor=none;fontColor=light-dark(#9673a6, #ededed);" vertex="1" connectable="0" parent="nzdjFk9B4ukdJoqEqeBN-31">
          <mxGeometry relative="1" as="geometry">
            <mxPoint y="-5" as="offset" />
          </mxGeometry>
        </mxCell>
        <mxCell id="nzdjFk9B4ukdJoqEqeBN-32" style="edgeStyle=orthogonalEdgeStyle;rounded=0;orthogonalLoop=1;jettySize=auto;html=1;exitX=1;exitY=0.5;exitDx=0;exitDy=0;fillColor=#ffe6cc;strokeColor=#d79b00;" edge="1" parent="1" source="nzdjFk9B4ukdJoqEqeBN-25" target="nzdjFk9B4ukdJoqEqeBN-29">
          <mxGeometry relative="1" as="geometry" />
        </mxCell>
        <mxCell id="nzdjFk9B4ukdJoqEqeBN-35" value="&lt;span style=&quot;&quot;&gt;ColumnNonzeroNorm&lt;/span&gt;" style="edgeLabel;html=1;align=center;verticalAlign=middle;resizable=0;points=[];labelBackgroundColor=none;fontColor=light-dark(#d79b00, #ededed);" vertex="1" connectable="0" parent="nzdjFk9B4ukdJoqEqeBN-32">
          <mxGeometry relative="1" as="geometry">
            <mxPoint y="-5" as="offset" />
          </mxGeometry>
        </mxCell>
        <mxCell id="nzdjFk9B4ukdJoqEqeBN-36" value="&lt;h1 style=&quot;&quot;&gt;&lt;font style=&quot;font-size: 20px;&quot;&gt;Hypergraph Convolution&lt;/font&gt;&lt;/h1&gt;&lt;div&gt;&lt;font style=&quot;font-size: 15px;&quot;&gt;&lt;sup style=&quot;line-height: 0%;&quot;&gt;&lt;br&gt;&lt;/sup&gt;&lt;/font&gt;&lt;/div&gt;&lt;div style=&quot;margin-top: 0px;&quot;&gt;&lt;font style=&quot;font-size: 25px;&quot;&gt;&lt;span style=&quot;line-height: 0%;&quot;&gt;&lt;font style=&quot;&quot;&gt;X&lt;sup&gt;(l+1)&lt;/sup&gt;&lt;/font&gt;&lt;/span&gt;&lt;sup style=&quot;line-height: 0%;&quot;&gt;&amp;nbsp;&lt;/sup&gt;&lt;span style=&quot;line-height: 0%;&quot;&gt;&lt;font style=&quot;&quot;&gt;= H W H&lt;sup style=&quot;&quot;&gt;T&lt;/sup&gt;&amp;nbsp;X&lt;sup&gt;(&lt;font face=&quot;Helvetica&quot;&gt;l&lt;/font&gt;)&lt;/sup&gt;&lt;/font&gt;&lt;/span&gt;&lt;/font&gt;&lt;/div&gt;&lt;div&gt;&lt;br&gt;&lt;/div&gt;" style="rounded=1;whiteSpace=wrap;html=1;fillColor=light-dark(#ff7214, #ed6823);strokeColor=#b85450;labelBackgroundColor=none;align=center;fillStyle=solid;gradientColor=none;arcSize=1;" vertex="1" parent="1">
          <mxGeometry x="1241" y="633.75" width="250" height="127.5" as="geometry" />
        </mxCell>
        <mxCell id="nzdjFk9B4ukdJoqEqeBN-39" value="&lt;div style=&quot;text-align: left;&quot;&gt;&lt;span style=&quot;background-color: transparent; font-size: 17px; letter-spacing: 0.5px; text-wrap-mode: nowrap;&quot;&gt;&lt;font color=&quot;#060607&quot;&gt;&lt;b&gt;X&lt;/b&gt;&lt;/font&gt;&lt;/span&gt;&lt;/div&gt;" style="rounded=0;whiteSpace=wrap;html=1;fillColor=#e1d5e7;movable=1;resizable=1;rotatable=1;deletable=1;editable=1;locked=0;connectable=1;strokeColor=#9673a6;imageHeight=24;" vertex="1" parent="1">
          <mxGeometry x="1070" y="635" width="130" height="35" as="geometry" />
        </mxCell>
        <mxCell id="nzdjFk9B4ukdJoqEqeBN-65" style="edgeStyle=orthogonalEdgeStyle;rounded=0;orthogonalLoop=1;jettySize=auto;html=1;exitX=1;exitY=0.5;exitDx=0;exitDy=0;entryX=0;entryY=0.5;entryDx=0;entryDy=0;fontColor=light-dark(#d79b00, #ededed);strokeColor=#D79B00;" edge="1" parent="1" source="nzdjFk9B4ukdJoqEqeBN-40" target="nzdjFk9B4ukdJoqEqeBN-36">
          <mxGeometry relative="1" as="geometry" />
        </mxCell>
        <mxCell id="nzdjFk9B4ukdJoqEqeBN-40" value="&lt;div style=&quot;text-align: left;&quot;&gt;&lt;font color=&quot;#060607&quot;&gt;&lt;span style=&quot;font-size: 17px; letter-spacing: 0.5px; text-wrap-mode: nowrap;&quot;&gt;&lt;b&gt;W&lt;/b&gt;&lt;/span&gt;&lt;/font&gt;&lt;/div&gt;" style="rounded=0;whiteSpace=wrap;html=1;fillColor=#ffe6cc;movable=1;resizable=1;rotatable=1;deletable=1;editable=1;locked=0;connectable=1;strokeColor=#d79b00;imageHeight=24;" vertex="1" parent="1">
          <mxGeometry x="1070" y="680" width="130" height="35" as="geometry" />
        </mxCell>
        <mxCell id="nzdjFk9B4ukdJoqEqeBN-41" value="&lt;div style=&quot;text-align: left;&quot;&gt;&lt;b style=&quot;color: rgb(6, 6, 7); font-size: 17px; letter-spacing: 0.5px; text-wrap-mode: nowrap;&quot;&gt;H&lt;/b&gt;&lt;/div&gt;" style="rounded=0;whiteSpace=wrap;html=1;fillColor=#bac8d3;movable=1;resizable=1;rotatable=1;deletable=1;editable=1;locked=0;connectable=1;strokeColor=#23445d;imageHeight=24;" vertex="1" parent="1">
          <mxGeometry x="1070" y="727.5" width="130" height="35" as="geometry" />
        </mxCell>
        <mxCell id="nzdjFk9B4ukdJoqEqeBN-42" style="edgeStyle=orthogonalEdgeStyle;rounded=0;orthogonalLoop=1;jettySize=auto;html=1;exitX=1;exitY=0.5;exitDx=0;exitDy=0;strokeColor=light-dark(#23445d, #ededed);" edge="1" parent="1" source="nzdjFk9B4ukdJoqEqeBN-26" target="nzdjFk9B4ukdJoqEqeBN-41">
          <mxGeometry relative="1" as="geometry" />
        </mxCell>
        <mxCell id="nzdjFk9B4ukdJoqEqeBN-44" value="&lt;span style=&quot;color: rgba(0, 0, 0, 0); font-family: monospace; font-size: 0px; text-align: start; background-color: rgb(251, 251, 251);&quot;&gt;%3CmxGraphModel%3E%3Croot%3E%3CmxCell%20id%3D%220%22%2F%3E%3CmxCell%20id%3D%221%22%20parent%3D%220%22%2F%3E%3CmxCell%20id%3D%222%22%20value%3D%22%26lt%3Bspan%20style%3D%26quot%3B%26quot%3B%26gt%3BColumnNonzeroNorm%26lt%3B%2Fspan%26gt%3B%22%20style%3D%22edgeLabel%3Bhtml%3D1%3Balign%3Dcenter%3BverticalAlign%3Dmiddle%3Bresizable%3D0%3Bpoints%3D%5B%5D%3BlabelBackgroundColor%3Dnone%3BfontColor%3Dlight-dark(%23d79b00%2C%20%23ededed)%3B%22%20vertex%3D%221%22%20connectable%3D%220%22%20parent%3D%221%22%3E%3CmxGeometry%20x%3D%22787.8571428571429%22%20y%3D%22692.5%22%20as%3D%22geometry%22%2F%3E%3C%2FmxCell%3E%3C%2Froot%3E%3C%2FmxGraphModel%3E&lt;/span&gt;" style="edgeLabel;html=1;align=center;verticalAlign=middle;resizable=0;points=[];" vertex="1" connectable="0" parent="nzdjFk9B4ukdJoqEqeBN-42">
          <mxGeometry x="-0.7739" y="-1" relative="1" as="geometry">
            <mxPoint as="offset" />
          </mxGeometry>
        </mxCell>
        <mxCell id="nzdjFk9B4ukdJoqEqeBN-45" value="&lt;span style=&quot;&quot;&gt;ColumnNonzeroNorm&lt;/span&gt;" style="edgeLabel;html=1;align=center;verticalAlign=middle;resizable=0;points=[];labelBackgroundColor=none;fontColor=light-dark(#23445d, #ededed);" vertex="1" connectable="0" parent="nzdjFk9B4ukdJoqEqeBN-42">
          <mxGeometry relative="1" as="geometry">
            <mxPoint x="-108" y="-5" as="offset" />
          </mxGeometry>
        </mxCell>
        <mxCell id="nzdjFk9B4ukdJoqEqeBN-63" style="edgeStyle=orthogonalEdgeStyle;rounded=0;orthogonalLoop=1;jettySize=auto;html=1;exitX=1;exitY=0.5;exitDx=0;exitDy=0;entryX=0;entryY=0.143;entryDx=0;entryDy=0;entryPerimeter=0;strokeColor=light-dark(#9673A6,#EDEDED);" edge="1" parent="1" source="nzdjFk9B4ukdJoqEqeBN-39" target="nzdjFk9B4ukdJoqEqeBN-36">
          <mxGeometry relative="1" as="geometry">
            <mxPoint x="1240" y="652" as="targetPoint" />
            <Array as="points">
              <mxPoint x="1220" y="653" />
            </Array>
          </mxGeometry>
        </mxCell>
        <mxCell id="nzdjFk9B4ukdJoqEqeBN-64" style="edgeStyle=orthogonalEdgeStyle;rounded=0;orthogonalLoop=1;jettySize=auto;html=1;exitX=1;exitY=0.5;exitDx=0;exitDy=0;jumpSize=0;startSize=0;strokeColor=light-dark(#23445d, #ededed);fontColor=light-dark(#23445d, #ededed);" edge="1" parent="1" source="nzdjFk9B4ukdJoqEqeBN-41">
          <mxGeometry relative="1" as="geometry">
            <mxPoint x="1240" y="745" as="targetPoint" />
          </mxGeometry>
        </mxCell>
      </root>
    </mxGraphModel>
  </diagram>
</mxfile>
